<svg viewBox="0 0 32 32" xml:space="preserve" xmlns="http://www.w3.org/2000/svg"><g fill="#ffffff" class="fill-121313"><path d="M22.008 13.007h9c.568 0 .992-.448.992-1.015 0-.568-.424-.985-.992-.984h-8V2.992a.98.98 0 0 0-1-1 .98.98 0 0 0-1 1v9l.001.007-.001.008a.992.992 0 0 0 1 1zM9.984 2C9.417 2 9 2.425 9 2.992v8H.985a.98.98 0 0 0-1 1c0 .568.432 1 1 1h9l.007-.001.008.001c.558 0 1-.442 1-1v-9c0-.567-.448-.991-1.016-.992zM9.992 18.992h-9C.424 18.993 0 19.44 0 20.008c0 .568.424.985.992.984h8v8.015c0 .568.432 1 1 1a.98.98 0 0 0 1-1v-9L10.991 20l.001-.008c0-.558-.442-1-1-1zM31.015 18.992h-9l-.007.001-.008-.001c-.558 0-1 .442-1 1v9c0 .568.448.991 1.016.992.567.001.984-.424.984-.991v-8h8.015a.98.98 0 0 0 1-1c0-.568-.432-1-1-1.001z"></path></g></svg>