<svg viewBox="0 0 32 32" xml:space="preserve" xmlns="http://www.w3.org/2000/svg"><g fill="#ffffff" class="fill-121313"><path d="M32 1c0-.558-.442-1-1-1h-8.985c-.568 0-.991.448-.992 1.016 0 .567.424.984.992.984H30l-.016 8.023c0 .568.432 1 1 1a.981.981 0 0 0 1-1L32 1.015l-.001-.007L32 1zM10.016 0H1.031l-.008.001L1.016 0c-.558 0-1 .442-1 1L0 10.008c0 .568.448.992 1.016.992.567 0 .984-.424.984-.992L2.016 2h8a.98.98 0 0 0 1-1 .982.982 0 0 0-1-1zM9.985 30H2v-8a.98.98 0 0 0-1-1 .98.98 0 0 0-1 1v8.985l.001.007L0 31c0 .558.442 1 1 1h8.985c.568 0 .991-.448.992-1.016 0-.567-.424-.984-.992-.984zM30.984 21.023c-.568 0-.985.424-.984.992V30h-8a.98.98 0 0 0-1 1c0 .568.432 1 1 1h8.985l.007-.001c.003-.001.005.001.008.001.558 0 1-.442 1-1v-8.985c0-.568-.448-.992-1.016-.992z"></path></g></svg>